/vscmnt/brussel_pixiu_data/_data_brussel/112/vsc11236/PredSimResults/SUBJ11opt3D/expIG/worker_10.mot
version=1
nRows=8
nColumns=50
inDegrees=yes
endheader
                time	         pelvis_tilt	         pelvis_list	     pelvis_rotation	           pelvis_tx	           pelvis_ty	           pelvis_tz	       hip_flexion_r	     hip_adduction_r	      hip_rotation_r	        knee_angle_r	       ankle_angle_r	         mtp_angle_r	       hip_flexion_l	     hip_adduction_l	      hip_rotation_l	        knee_angle_l	       ankle_angle_l	         mtp_angle_l	    lumbar_extension	      lumbar_bending	     lumbar_rotation	 ercspn_r/activation	 intobl_r/activation	 extobl_r/activation	    abd_r/activation	    add_r/activation	hamstrings_r/activation	bifemsh_r/activation	glut_max_r/activation	iliopsoas_r/activation	rect_fem_r/activation	  vasti_r/activation	gastroc_r/activation	 soleus_r/activation	tib_ant_r/activation	 ercspn_l/activation	 intobl_l/activation	 extobl_l/activation	    abd_l/activation	    add_l/activation	hamstrings_l/activation	bifemsh_l/activation	glut_max_l/activation	iliopsoas_l/activation	rect_fem_l/activation	  vasti_l/activation	gastroc_l/activation	 soleus_l/activation	tib_ant_l/activation	
          1.68078465	         -6.86518700	          3.24784428	         -8.40626601	          2.52117698	          0.92677317	          0.00704428	        -14.04030968	         -4.52001469	          1.60898863	        -11.42236508	          7.94079271	         38.35584426	         36.02302535	         -0.87120523	         -7.78932983	         -8.14709699	          3.41452491	          0.29065076	        -13.07143721	         -1.62347462	          1.90376537	          0.03521573	          0.00999999	          0.00999999	          0.02947064	          0.02093580	          0.01096449	          0.28687670	          0.01983546	          0.11402524	          0.01671404	          0.00999999	          0.19816237	          0.31119433	          0.01408383	          0.07369734	          0.23635673	          0.02353980	          0.00999999	          0.23484750	          0.07844413	          0.23352687	          0.06857870	          0.14083170	          0.02690631	          0.00999999	          0.01671404	          0.00999999	          0.54422726	
          1.69198988	         -6.85805471	          3.40949640	         -8.59297696	          2.54237507	          0.92443203	          0.00649112	        -15.10183721	         -4.92209644	          1.29370639	        -11.58966538	          6.45914919	         40.30263460	         36.25230703	         -0.68859017	         -7.88296737	        -10.43264908	          2.67207962	          0.28442556	        -12.57053512	         -2.05994878	          2.14719449	          0.06332151	          0.00999999	          0.00999999	          0.02483298	          0.13805924	          0.01216330	          0.24173227	          0.01671404	          0.25179850	          0.01408383	          0.01000000	          0.16697849	          0.27152876	          0.01186753	          0.06209994	          0.19916239	          0.01983545	          0.00999999	          0.29463483	          0.06609975	          0.19677785	          0.21555756	          0.11866968	          0.02267219	          0.00999999	          0.01408383	          0.01186753	          0.59571426	
          1.70319512	         -6.83048806	          3.53826782	         -8.73196390	          2.56383526	          0.92230037	          0.00588852	        -15.96922681	         -5.27298774	          0.93365309	        -12.15766267	          4.92038378	         42.14372377	         36.36712673	         -0.54316078	         -7.91557329	        -12.85308500	          2.19596360	          0.21879263	        -12.06166764	         -2.46106347	          2.37518687	          0.08021293	          0.00999999	          0.00999999	          0.02092513	          0.12035033	          0.01024922	          0.20369201	          0.01408383	          0.39527187	          0.01186753	          0.01186753	          0.14070188	          0.22879956	          0.00999999	          0.05232757	          0.16782114	          0.01671404	          0.12182515	          0.34893740	          0.05953913	          0.16581184	          0.24422311	          0.09999519	          0.01910438	          0.00999999	          0.01186753	          0.00999999	          0.69271466	
          1.71440035	         -6.78617268	          3.62659386	         -8.82115406	          2.58519722	          0.92059216	          0.00519861	        -16.47230642	         -5.56558855	          0.56732675	        -13.38200988	          3.38825214	         43.77011010	         36.44969752	         -0.41335122	         -7.96069495	        -15.23578902	          1.66949074	          0.17432482	        -11.59006657	         -2.81694728	          2.58117343	          0.09691007	          0.00999999	          0.00999999	          0.01763224	          0.16965392	          0.01408382	          0.17519707	          0.01186753	          0.52459928	          0.00999999	          0.00999999	          0.11856029	          0.19279446	          0.00999999	          0.08333633	          0.14141192	          0.01408383	          0.16784158	          0.44036520	          0.05016974	          0.13971882	          0.30219482	          0.08425942	          0.01609801	          0.00999999	          0.00999999	          0.00999999	          0.74482774	
          1.72560558	         -6.72354716	          3.68294513	         -8.86193566	          2.60625268	          0.91940117	          0.00443679	        -16.48556470	         -5.80911893	          0.20787720	        -15.46609895	          1.94367247	         45.00142066	         36.57907349	         -0.29989498	         -8.01255528	        -17.73968922	          1.33860990	          0.10422023	        -11.17820354	         -3.14278726	          2.75607246	          0.14855891	          0.00999999	          0.00999999	          0.01485754	          0.21019463	          0.01186752	          0.15288301	          0.00999999	          0.54427269	          0.00999999	          0.00999999	          0.09990301	          0.16245530	          0.00999999	          0.10836466	          0.11915859	          0.01186753	          0.20835044	          0.48233538	          0.04227477	          0.11773193	          0.34234457	          0.07099991	          0.01356474	          0.04624910	          0.00999999	          0.00999999	          0.74319968	
          1.73681081	         -6.64315862	          3.71948636	         -8.85562929	          2.62691355	          0.91881628	          0.00363289	        -15.94465656	         -6.02316292	         -0.15488422	        -18.51644023	          0.68561578	         45.46088255	         36.71881137	         -0.19143312	         -8.06329355	        -20.33747589	          1.45543906	          0.03380551	        -10.82822205	         -3.45594344	          2.89273925	          0.19115142	          0.00999999	          0.00999999	          0.01251948	          0.21746827	          0.00999999	          0.13320407	          0.00999999	          0.45862307	          0.00999999	          0.00999999	          0.08418175	          0.13689048	          0.00999999	          0.09131186	          0.10040717	          0.00999999	          0.22319333	          0.45770865	          0.03562219	          0.09920501	          0.32411483	          0.05982699	          0.01143013	          0.11181746	          0.00999999	          0.00999999	          0.70711382	
          1.74801604	         -6.54865460	          3.74158339	         -8.80085103	          2.64714870	          0.91890752	          0.00279848	        -14.85977186	         -6.22431724	         -0.51776360	        -22.45173093	         -0.58057308	         45.18016730	         36.77095920	         -0.05951309	         -8.06864505	        -22.83060521	          1.94523401	         -0.00934601	        -10.53602707	         -3.76093403	          2.98669686	          0.18718343	          0.00999999	          0.00999999	          0.01054935	          0.22356573	          0.00999999	          0.12781492	          0.00999999	          0.38645172	          0.00999999	          0.00999999	          0.07093446	          0.11534867	          0.00999999	          0.07694254	          0.08460657	          0.00999999	          0.23364647	          0.43846993	          0.03516891	          0.08359359	          0.27311041	          0.05041230	          0.00999999	          0.15449472	          0.00999999	          0.00999999	          0.59583866	
          1.75922127	         -6.44563805	          3.74456012	         -8.69854304	          2.66694527	          0.91966098	          0.00196253	        -13.27857227	         -6.41556158	         -0.87122667	        -27.10192634	         -2.06543163	         44.19059906	         36.64547030	          0.10993074	         -7.99623944	        -25.03598442	          2.72048560	         -0.00097158	        -10.29630504	         -4.05393392	          3.03729759	          0.16587536	          0.00999999	          0.00999999	          0.00999999	          0.26871905	          0.01000000	          0.11508558	          0.00999999	          0.32563764	          0.00999999	          0.00999999	          0.05977184	          0.09719679	          0.00999999	          0.06483446	          0.07129243	          0.00999999	          0.24552044	          0.38272047	          0.04371223	          0.07043886	          0.23013231	          0.04247916	          0.00999999	          0.25367498	          0.00999999	          0.00999999	          0.50207434	
